<svg width="20" height="20" viewBox="0 0 20 20" fill="none" xmlns="http://www.w3.org/2000/svg">
<path d="M15.0013 8.75V11.25M5.0013 8.75V11.25M3.33464 15C2.41416 15 1.66797 14.2538 1.66797 13.3333V12.2567V7.74332V6.66667C1.66797 5.74619 2.41416 5 3.33464 5H4.41128H15.5913H16.668C17.5884 5 18.3346 5.74619 18.3346 6.66667V7.74332V12.2567V13.3333C18.3346 14.2538 17.5884 15 16.668 15H15.5913H4.41128H3.33464ZM11.668 10C11.668 10.9205 10.9218 11.6667 10.0013 11.6667C9.08083 11.6667 8.33464 10.9205 8.33464 10C8.33464 9.07953 9.08083 8.33333 10.0013 8.33333C10.9218 8.33333 11.668 9.07953 11.668 10Z" stroke="#666D80" stroke-width="2" stroke-linecap="round"/>
</svg>
