<svg width="20" height="20" viewBox="0 0 20 20" fill="none" xmlns="http://www.w3.org/2000/svg">
<path d="M7.4987 17.5H5.83203C4.45132 17.5 3.33203 16.4491 3.33203 15.1528V9.08335C3.33203 8.46083 3.59542 7.8638 4.06426 7.42361L8.82019 2.95832C9.47106 2.34722 10.5263 2.34723 11.1772 2.95832L15.9331 7.42361C16.402 7.8638 16.6654 8.46083 16.6654 9.08335V15.1528C16.6654 16.4491 15.5461 17.5 14.1654 17.5H12.4987M7.4987 17.5V13.3333C7.4987 12.4129 8.24489 11.6667 9.16536 11.6667H10.832C11.7525 11.6667 12.4987 12.4129 12.4987 13.3333V17.5M7.4987 17.5H12.4987" stroke="#666D80" stroke-width="2"/>
</svg>
