<svg width="20" height="20" viewBox="0 0 20 20" fill="none" xmlns="http://www.w3.org/2000/svg">
<path d="M12.3828 9.02869L11.5467 8.48019L10.8095 9.60389L12.0976 9.98716L12.3828 9.02869ZM12.3828 2.63798L12.0976 1.67951L10.8095 2.06277L11.5467 3.18647L12.3828 2.63798ZM14.8967 17.5L13.9283 17.2507L13.6067 18.5H14.8967V17.5ZM13.5395 11.6667V10.6667H11.4562L12.7593 12.2921L13.5395 11.6667ZM13.335 5.83333H12.335C12.335 6.81222 12.0451 7.72035 11.5467 8.48019L12.3828 9.02869L13.219 9.57718C13.9247 8.50139 14.335 7.21376 14.335 5.83333H13.335ZM12.3828 2.63798L11.5467 3.18647C12.0451 3.94632 12.335 4.85444 12.335 5.83333H13.335H14.335C14.335 4.4529 13.9247 3.16528 13.219 2.08949L12.3828 2.63798ZM13.335 2.5V1.5C12.9065 1.5 12.4909 1.56249 12.0976 1.67951L12.3828 2.63798L12.668 3.59645C12.8781 3.53393 13.1017 3.5 13.335 3.5V2.5ZM16.6683 5.83333H17.6683C17.6683 3.4401 15.7282 1.5 13.335 1.5V2.5V3.5C14.6237 3.5 15.6683 4.54467 15.6683 5.83333H16.6683ZM13.335 9.16667V10.1667C15.7282 10.1667 17.6683 8.22657 17.6683 5.83333H16.6683H15.6683C15.6683 7.122 14.6237 8.16667 13.335 8.16667V9.16667ZM12.3828 9.02869L12.0976 9.98716C12.4909 10.1042 12.9065 10.1667 13.335 10.1667V9.16667V8.16667C13.1017 8.16667 12.8781 8.13274 12.668 8.07022L12.3828 9.02869ZM15.0017 16.6667H14.0017C14.0017 16.8696 13.976 17.0651 13.9283 17.2507L14.8967 17.5L15.8651 17.7493C15.9545 17.4022 16.0017 17.0392 16.0017 16.6667H15.0017ZM15.0017 15.8333H14.0017V16.6667H15.0017H16.0017V15.8333H15.0017ZM13.5395 11.6667L12.7593 12.2921C13.5371 13.2625 14.0017 14.4923 14.0017 15.8333H15.0017H16.0017C16.0017 14.0212 15.3718 12.3535 14.3198 11.0412L13.5395 11.6667ZM14.1683 11.6667V10.6667H13.5395V11.6667V12.6667H14.1683V11.6667ZM18.335 15.8333H19.335C19.335 12.9799 17.0218 10.6667 14.1683 10.6667V11.6667V12.6667C15.9172 12.6667 17.335 14.0844 17.335 15.8333H18.335ZM18.335 16.6667H19.335V15.8333H18.335H17.335V16.6667H18.335ZM17.5017 17.5V18.5C18.5142 18.5 19.335 17.6792 19.335 16.6667H18.335H17.335C17.335 16.5746 17.4096 16.5 17.5017 16.5V17.5ZM14.8967 17.5V18.5H17.5017V17.5V16.5H14.8967V17.5Z" fill="#666D80"/>
<path d="M8.33333 11.6667H6.66667C4.36548 11.6667 2.5 13.5321 2.5 15.8333V16.6667C2.5 17.1269 2.8731 17.5 3.33333 17.5H11.6667C12.1269 17.5 12.5 17.1269 12.5 16.6667V15.8333C12.5 13.5321 10.6345 11.6667 8.33333 11.6667Z" stroke="#666D80" stroke-width="2"/>
<path d="M7.5 9.16667C9.34095 9.16667 10.8333 7.67428 10.8333 5.83333C10.8333 3.99238 9.34095 2.5 7.5 2.5C5.65905 2.5 4.16667 3.99238 4.16667 5.83333C4.16667 7.67428 5.65905 9.16667 7.5 9.16667Z" stroke="#666D80" stroke-width="2"/>
</svg>
